<?xml version="1.0" encoding="utf-8"?>
<!-- Generator: Adobe Illustrator 24.0.2, SVG Export Plug-In . SVG Version: 6.00 Build 0)  -->
<svg version="1.1" xmlns="http://www.w3.org/2000/svg" xmlns:xlink="http://www.w3.org/1999/xlink" x="0px" y="0px" width="300px"
	 height="71.1px" viewBox="0 0 300 71.1" style="enable-background:new 0 0 300 71.1;" xml:space="preserve">
<style type="text/css">
	.st0{fill:#2B2D46;}
	.st1{fill:#E65014;}
	.st2{display:none;stroke:#FFFFFF;stroke-miterlimit:10;}
	.st3{fill:#E6302B;}
	.st4{fill:none;}
	.st5{fill:#CDCCCA;}
	.st6{fill:#AAA9A6;}
	.st7{fill:#010202;}
	.st8{fill:#83BB26;}
	.st9{fill:#6E6E6D;}
	.st10{fill:#575657;}
	.st11{fill:#479CD6;}
	.st12{fill:#FFFFFF;}
	.st13{fill:#66C7E9;}
	.st14{fill:#E5322C;}
	.st15{fill:#2B54A0;}
	.st16{fill:#FAB734;}
	.st17{fill:#70B236;}
	.st18{fill:#4E7AA7;}
	.st19{fill:#C21C1B;}
	.st20{fill:#6D7EA3;}
	.st21{fill:#1A7E35;}
	.st22{fill:#FECC08;}
	.st23{fill:#FFDD09;}
	.st24{fill:#05A099;}
	.st25{fill:#FFFFFF;stroke:#FFFFFF;stroke-miterlimit:10;}
	.st26{fill:#878787;}
	.st27{fill:#595859;}
	.st28{fill:#E4332D;}
	.st29{fill:#16A6AB;}
	.st30{fill:#E6602B;}
	.st31{fill:#BEDEC2;}
	.st32{fill:#FFDE00;}
	.st33{fill:#878181;}
	.st34{fill:#5EBFBF;}
	.st35{fill:#4797AC;}
	.st36{fill:#BA9271;}
	.st37{fill:#E6312C;}
	.st38{fill:none;stroke:#16A6AB;stroke-linecap:round;stroke-linejoin:round;stroke-miterlimit:10;}
	.st39{fill:none;stroke:#16A6AB;stroke-linecap:round;stroke-miterlimit:10;}
	.st40{fill:#EA5B0C;}
	.st41{fill:#00A19A;}
	.st42{fill:#FFCC07;}
	.st43{fill:#1A7E34;}
	.st44{fill:#E5322D;}
	.st45{fill:#A9A9A9;}
	.st46{fill:#E5322E;}
	.st47{fill:#2FAC66;}
	.st48{fill:#A0A0A0;}
	.st49{fill:none;stroke:#575657;stroke-width:0;stroke-linecap:round;stroke-linejoin:round;}
	.st50{fill:none;stroke:#010202;stroke-width:0;stroke-linecap:round;stroke-linejoin:round;}
	.st51{fill:#686868;}
	.st52{fill:none;stroke:#FFFFFF;stroke-width:0;stroke-linecap:round;stroke-linejoin:round;}
	.st53{fill:#989798;}
	.st54{fill:#AEAEAE;}
	.st55{fill:#F4D9BF;}
	.st56{fill:#585758;}
</style>
<symbol  id="logo_uga_long" viewBox="-210 -14.7 420.1 29.4">
	<path class="st0" d="M-207.5-6.5c-1.7,1.6-2.5,3.7-2.5,6.2v13.5h4.7V-0.1c0-1.3,0.4-2.4,1.2-3.2c0.8-0.8,1.8-1.2,3-1.2
		c1.3,0,2.3,0.4,3.1,1.2c0.8,0.8,1.2,1.9,1.2,3.2v13.2h4.7V-0.4c0-2.5-0.8-4.6-2.5-6.2c-1.7-1.6-3.8-2.4-6.4-2.4
		C-203.7-8.9-205.8-8.1-207.5-6.5"/>
	<path class="st0" d="M-173.6,6.7c1.1-1.3,1.6-3,1.6-5.1V-8.5h-4.5v9.4c0,2.5-1,3.7-2.9,3.7c-0.8,0-1.4-0.2-2-0.5
		c-0.6-0.3-1-0.9-1.3-1.5c-0.3-0.7-0.4-1.4-0.4-2.3v-8.7h-4.5V8.2h3.1l0.9-2.1c0.3,0.4,0.7,0.7,1.1,1c0.4,0.3,0.8,0.6,1.3,0.8
		c0.5,0.2,1,0.4,1.5,0.5c0.5,0.1,1.1,0.2,1.6,0.2C-176.2,8.6-174.7,7.9-173.6,6.7"/>
	<path class="st0" d="M-167.2,14.6h4.5v-4.2h-4.5V14.6z M-167.2,8.2h4.5V-8.5h-4.5V8.2z"/>
	<polygon class="st0" points="-142.2,8.2 -148.8,-8.5 -153,-8.5 -159.7,8.2 -154.9,8.2 -150.8,-3 -146.9,8.2 	"/>
	<path class="st0" d="M-123.7-1.4h-12.6c0.2-1.1,0.6-2,1.3-2.6c0.7-0.6,1.6-0.9,2.7-0.9c0.8,0,1.4,0.2,2.1,0.5
		c0.6,0.3,1.1,0.8,1.4,1.4h4.7c-0.6-1.8-1.7-3.2-3.1-4.3c-1.5-1.1-3.2-1.6-5.1-1.6c-2.5,0-4.5,0.8-6.2,2.5c-1.6,1.7-2.5,3.8-2.5,6.3
		c0,1,0.1,1.9,0.4,2.8c0.3,0.9,0.7,1.7,1.2,2.4c0.5,0.7,1.1,1.3,1.8,1.9c0.7,0.5,1.5,0.9,2.4,1.2c0.9,0.3,1.8,0.4,2.8,0.4
		c1.7,0,3.2-0.4,4.5-1.2c1.3-0.8,2.3-1.8,3-3.2c0.7-1.3,1.1-2.8,1.1-4.4C-123.6-0.5-123.7-1-123.7-1.4 M-134.8,4
		c-0.7-0.6-1.2-1.3-1.4-2.3h8c-0.2,0.7-0.5,1.2-0.9,1.7c-0.4,0.5-0.9,0.8-1.4,1.1c-0.5,0.2-1.1,0.4-1.8,0.4
		C-133.2,4.8-134.1,4.5-134.8,4"/>
	<path class="st0" d="M-109.9,8.3V4h-1.9c-1.3,0-2.2-0.3-2.7-0.9c-0.5-0.6-0.8-1.6-0.8-2.9v-8.7h-4.5V8.2h2.9l0.8-2
		c1.1,1.4,2.7,2.1,4.8,2.1H-109.9z"/>
	<path class="st0" d="M-104.5-8.2c-1.1,0.5-1.9,1.2-2.5,2.1c-0.6,0.9-0.9,1.9-0.9,3.1h4.4c0-0.5,0.1-0.9,0.4-1.2
		c0.2-0.3,0.6-0.6,1-0.7c0.4-0.2,0.9-0.2,1.4-0.2c0.4,0,0.8,0.1,1.2,0.2c0.4,0.1,0.6,0.3,0.9,0.6c0.2,0.3,0.3,0.6,0.3,0.9
		c0,0.5-0.3,0.9-0.8,1.1c-0.5,0.2-1.3,0.5-2.4,0.6c-0.7,0.1-1.2,0.2-1.7,0.3c-0.4,0.1-1,0.3-1.6,0.5c-0.6,0.3-1.1,0.6-1.4,0.9
		c-0.4,0.3-0.7,0.8-0.9,1.4c-0.3,0.6-0.4,1.2-0.4,2c0,1.6,0.6,2.8,1.8,3.8c1.2,1,2.8,1.5,4.9,1.5c2,0,3.6-0.5,4.8-1.5
		c1.2-1,1.8-2.4,1.8-4h-4.3c0,1.3-0.8,2-2.5,2c-0.7,0-1.2-0.1-1.6-0.4c-0.4-0.3-0.6-0.7-0.6-1.2c0-0.2,0.1-0.4,0.2-0.6
		c0.1-0.2,0.2-0.3,0.4-0.4c0.2-0.1,0.4-0.2,0.7-0.3c0.3-0.1,0.6-0.2,0.8-0.2l1-0.2c0.4-0.1,0.7-0.1,0.8-0.2s0.4-0.1,0.8-0.2
		c0.4-0.1,0.7-0.2,0.9-0.2c0.2-0.1,0.5-0.2,0.8-0.3c0.3-0.1,0.6-0.3,0.8-0.4c0.2-0.1,0.4-0.3,0.6-0.5c0.3-0.2,0.5-0.4,0.6-0.6
		c0.1-0.2,0.3-0.5,0.4-0.7c0.1-0.3,0.2-0.6,0.3-0.9c0-0.3,0.1-0.7,0.1-1.1c0-1.7-0.6-3.1-1.9-4.1c-1.3-1-3-1.5-5.1-1.5
		C-102.3-8.9-103.5-8.7-104.5-8.2"/>
	<path class="st0" d="M-90,14.6h4.5v-4.2H-90V14.6z M-90,8.2h4.5V-8.5H-90V8.2z"/>
	<path class="st0" d="M-70.4-4.5v-4h-3.2c-1.2,0-2.3,0.2-3.2,0.7c-0.9,0.5-1.6,1.2-2,2c-0.5,0.9-0.7,2-0.7,3.2v7.1h-3v1l6.6,7h0.8
		V8.2h4.6V4.6H-75v-6.5c0-0.8,0.2-1.4,0.7-1.9c0.4-0.4,1.1-0.7,1.9-0.7H-70.4z"/>
	<path class="st0" d="M-50.8-1.4h-12.6c0.2-1.1,0.6-2,1.3-2.6c0.7-0.6,1.6-0.9,2.7-0.9c0.8,0,1.4,0.2,2.1,0.5
		c0.6,0.3,1.1,0.8,1.4,1.4h4.7c-0.6-1.8-1.7-3.2-3.1-4.3c-1.5-1.1-3.2-1.6-5.1-1.6c-2.5,0-4.5,0.8-6.2,2.5C-67.1-4.7-68-2.6-68-0.1
		c0,1,0.1,1.9,0.4,2.8c0.3,0.9,0.7,1.7,1.2,2.4c0.5,0.7,1.1,1.3,1.8,1.9c0.7,0.5,1.5,0.9,2.4,1.2c0.9,0.3,1.8,0.4,2.8,0.4
		c1.7,0,3.2-0.4,4.5-1.2c1.3-0.8,2.3-1.8,3-3.2c0.7-1.3,1.1-2.8,1.1-4.4C-50.7-0.5-50.8-1-50.8-1.4 M-61.9,4
		c-0.7-0.6-1.2-1.3-1.4-2.3h8c-0.2,0.7-0.5,1.2-0.9,1.7c-0.4,0.5-0.9,0.8-1.4,1.1c-0.5,0.2-1.1,0.4-1.8,0.4
		C-60.3,4.8-61.2,4.5-61.9,4 M-58,10h-3.4l1.7,4.7h4.8L-58,10z"/>
	<path class="st0" d="M-17,2.8c0-3.4-1.1-6.2-3.1-8.4c-2.1-2.2-4.7-3.3-7.9-3.3c-3.2,0-5.8,1.1-8,3.2c-2.1,2.1-3.2,4.8-3.2,8
		c0,3.2,1,5.9,3.1,8.1c2.1,2.1,4.7,3.2,7.9,3.2c2.7,0,5-0.8,7.1-2.3c2-1.5,3.3-3.5,3.8-5.9h-4.8c-0.3,0.8-0.7,1.5-1.3,2
		c-0.6,0.6-1.3,1-2,1.3C-26.3,9-27.1,9.1-28,9.1c-1.9,0-3.5-0.6-4.7-1.9c-1.2-1.3-1.8-2.9-1.8-4.9c0-1.3,0.3-2.5,0.8-3.5
		c0.5-1,1.3-1.8,2.3-2.4c1-0.6,2.1-0.9,3.4-0.9c0.9,0,1.8,0.2,2.6,0.5c0.8,0.3,1.5,0.7,2.1,1.3c0.6,0.6,1,1.2,1.3,1.9h-6.5v3.6H-17z
		"/>
	<path class="st0" d="M-3.2,8.2V4h-1.9c-1.3,0-2.2-0.3-2.7-0.9c-0.5-0.6-0.8-1.6-0.8-2.9v-8.7h-4.5V8.2h2.9l0.8-2
		c1.1,1.4,2.7,2.1,4.8,2.1H-3.2z"/>
	<path class="st0" d="M15.6-1.4H3c0.2-1.1,0.6-2,1.3-2.6C5.1-4.6,6-4.9,7.1-4.9c0.8,0,1.4,0.2,2.1,0.5c0.6,0.3,1.1,0.8,1.4,1.4h4.7
		c-0.6-1.8-1.7-3.2-3.1-4.3C10.7-8.4,9-8.9,7.1-8.9C4.6-8.9,2.6-8.1,1-6.4c-1.6,1.7-2.5,3.8-2.5,6.3c0,1,0.1,1.9,0.4,2.8
		c0.3,0.9,0.7,1.7,1.2,2.4C0.6,5.8,1.2,6.4,1.9,7c0.7,0.5,1.5,0.9,2.4,1.2c0.9,0.3,1.8,0.4,2.8,0.4c1.7,0,3.2-0.4,4.5-1.2
		c1.3-0.8,2.3-1.8,3-3.2c0.7-1.3,1.1-2.8,1.1-4.4C15.7-0.5,15.7-1,15.6-1.4 M4.6,4C3.9,3.4,3.4,2.6,3.2,1.7h8
		c-0.2,0.7-0.5,1.2-0.9,1.7C9.9,3.8,9.5,4.2,8.9,4.4C8.4,4.7,7.8,4.8,7.1,4.8C6.1,4.8,5.3,4.5,4.6,4"/>
	<path class="st0" d="M33.5,6.7c1.1-1.3,1.6-3,1.6-5.1V-8.5h-4.5v9.4c0,2.5-1,3.7-2.9,3.7c-0.8,0-1.4-0.2-2-0.5
		c-0.6-0.3-1-0.9-1.3-1.5C24.2,1.9,24,1.2,24,0.3v-8.7h-4.5V8.2h3.1l0.9-2.1c0.3,0.4,0.7,0.7,1.1,1c0.4,0.3,0.8,0.6,1.3,0.8
		c0.5,0.2,1,0.4,1.5,0.5c0.5,0.1,1.1,0.2,1.6,0.2C30.9,8.6,32.4,7.9,33.5,6.7"/>
	<path class="st0" d="M43.2-7.8C41.8-7,40.7-6,40-4.6c-0.8,1.3-1.2,2.8-1.2,4.5c0,2.5,0.9,4.6,2.6,6.3c1.7,1.7,3.9,2.5,6.4,2.5
		c2.6,0,4.7-0.8,6.4-2.5c1.7-1.7,2.6-3.8,2.6-6.3c0-2.5-0.9-4.6-2.6-6.3c-1.7-1.7-3.8-2.5-6.4-2.5C46.1-8.9,44.6-8.6,43.2-7.8
		 M51-3.4c0.8,0.9,1.2,1.9,1.2,3.3c0,1.3-0.4,2.4-1.2,3.3c-0.8,0.9-1.9,1.3-3.2,1.3c-1.3,0-2.4-0.4-3.2-1.3
		c-0.8-0.9-1.2-1.9-1.2-3.3c0-0.7,0.1-1.3,0.3-1.8c0.2-0.6,0.5-1.1,0.9-1.4C45-3.8,45.5-4.2,46-4.4c0.5-0.2,1.1-0.3,1.8-0.3
		C49.1-4.7,50.1-4.3,51-3.4"/>
	<path class="st0" d="M75.9,6.1c1.7-1.7,2.5-3.8,2.5-6.3c0-2.5-0.8-4.6-2.5-6.3c-1.7-1.7-3.7-2.5-6.3-2.5c-2,0-3.7,0.6-5.2,1.8
		l-0.5-1.4h-3.3v22.6h4.5V7.3c1.3,0.9,2.9,1.4,4.6,1.4C72.2,8.6,74.3,7.8,75.9,6.1 M72.5-3.4c0.9,0.9,1.3,1.9,1.3,3.2
		c0,0.9-0.2,1.6-0.6,2.3c-0.4,0.7-0.9,1.2-1.6,1.6c-0.7,0.4-1.5,0.6-2.3,0.6S67.7,4.2,67,3.8c-0.7-0.4-1.2-0.9-1.6-1.6
		c-0.4-0.7-0.6-1.5-0.6-2.3c0-1.3,0.4-2.4,1.3-3.2c0.9-0.9,1.9-1.3,3.2-1.3C70.6-4.7,71.7-4.3,72.5-3.4"/>
	<rect x="82.3" y="-8.5" class="st0" width="4.5" height="22.6"/>
	<path class="st0" d="M107.7-1.4H95.2c0.2-1.1,0.6-2,1.3-2.6c0.7-0.6,1.6-0.9,2.7-0.9c0.8,0,1.4,0.2,2.1,0.5
		c0.6,0.3,1.1,0.8,1.4,1.4h4.7c-0.6-1.8-1.7-3.2-3.1-4.3c-1.5-1.1-3.2-1.6-5.1-1.6c-2.5,0-4.5,0.8-6.2,2.5c-1.6,1.7-2.5,3.8-2.5,6.3
		c0,1,0.1,1.9,0.4,2.8c0.3,0.9,0.7,1.7,1.2,2.4c0.5,0.7,1.1,1.3,1.8,1.9c0.7,0.5,1.5,0.9,2.4,1.2c0.9,0.3,1.8,0.4,2.8,0.4
		c1.7,0,3.2-0.4,4.5-1.2c1.3-0.8,2.3-1.8,3-3.2c0.7-1.3,1.1-2.8,1.1-4.4C107.8-0.5,107.8-1,107.7-1.4 M96.7,4
		c-0.7-0.6-1.2-1.3-1.4-2.3h8c-0.2,0.7-0.5,1.2-0.9,1.7c-0.4,0.5-0.9,0.8-1.4,1.1c-0.5,0.2-1.1,0.4-1.8,0.4
		C98.2,4.8,97.4,4.5,96.7,4"/>
	<rect x="146.2" y="-8.5" class="st0" width="4.5" height="22.6"/>
	<path class="st0" d="M170.9,6.1c1.7-1.7,2.5-3.8,2.5-6.3c0-2.5-0.8-4.6-2.5-6.3c-1.7-1.7-3.7-2.5-6.2-2.5c-1.7,0-3.2,0.5-4.6,1.4
		v-6.9h-4.5V8.2h3l0.8-1.5c1.5,1.3,3.3,2,5.3,2C167.2,8.6,169.3,7.8,170.9,6.1 M167.5-3.4c0.9,0.9,1.3,2,1.3,3.3
		c0,0.9-0.2,1.6-0.6,2.3c-0.4,0.7-0.9,1.2-1.6,1.6c-0.7,0.4-1.5,0.6-2.3,0.6c-0.9,0-1.6-0.2-2.3-0.6c-0.7-0.4-1.2-0.9-1.6-1.6
		s-0.6-1.5-0.6-2.3c0-1.3,0.4-2.4,1.3-3.3c0.9-0.9,1.9-1.3,3.2-1.3C165.6-4.7,166.7-4.3,167.5-3.4"/>
	<path class="st0" d="M193.3-1.4h-12.6c0.2-1.1,0.6-2,1.3-2.6c0.7-0.6,1.6-0.9,2.7-0.9c0.8,0,1.4,0.2,2.1,0.5
		c0.6,0.3,1.1,0.8,1.4,1.4h4.7c-0.6-1.8-1.7-3.2-3.1-4.3c-1.5-1.1-3.2-1.6-5.1-1.6c-2.5,0-4.5,0.8-6.2,2.5c-1.6,1.7-2.5,3.8-2.5,6.3
		c0,1,0.1,1.9,0.4,2.8c0.3,0.9,0.7,1.7,1.2,2.4c0.5,0.7,1.1,1.3,1.8,1.9c0.7,0.5,1.5,0.9,2.4,1.2c0.9,0.3,1.8,0.4,2.8,0.4
		c1.7,0,3.2-0.4,4.5-1.2c1.3-0.8,2.3-1.8,3-3.2c0.7-1.3,1.1-2.8,1.1-4.4C193.3-0.5,193.3-1,193.3-1.4 M182.2,4
		c-0.7-0.6-1.2-1.3-1.4-2.3h8c-0.2,0.7-0.5,1.2-0.9,1.7c-0.4,0.5-0.9,0.8-1.4,1.1c-0.5,0.2-1.1,0.4-1.8,0.4
		C183.8,4.8,182.9,4.5,182.2,4"/>
	<path class="st0" d="M199.4-8.2c-1.1,0.5-1.9,1.2-2.5,2.1c-0.6,0.9-0.9,1.9-0.9,3.1h4.4c0-0.5,0.1-0.9,0.4-1.2
		c0.2-0.3,0.6-0.6,1-0.7c0.4-0.2,0.9-0.2,1.4-0.2c0.4,0,0.8,0.1,1.2,0.2c0.3,0.1,0.6,0.3,0.9,0.6c0.2,0.3,0.3,0.6,0.3,0.9
		c0,0.5-0.3,0.9-0.8,1.1c-0.5,0.2-1.3,0.5-2.4,0.6c-0.7,0.1-1.2,0.2-1.7,0.3c-0.4,0.1-1,0.3-1.6,0.5c-0.6,0.3-1.1,0.5-1.4,0.9
		c-0.4,0.3-0.7,0.8-0.9,1.4c-0.3,0.6-0.4,1.2-0.4,2c0,1.6,0.6,2.8,1.8,3.8c1.2,1,2.9,1.5,4.9,1.5c2,0,3.6-0.5,4.8-1.5
		c1.2-1,1.8-2.4,1.8-4h-4.3c0,1.3-0.8,2-2.5,2c-0.7,0-1.2-0.1-1.6-0.4c-0.4-0.3-0.6-0.7-0.6-1.2c0-0.2,0.1-0.4,0.2-0.6
		c0.1-0.2,0.2-0.3,0.4-0.4c0.2-0.1,0.4-0.2,0.7-0.3c0.3-0.1,0.6-0.2,0.8-0.2l1-0.2c0.4-0.1,0.7-0.1,0.8-0.2c0.2,0,0.4-0.1,0.8-0.2
		c0.4-0.1,0.7-0.2,0.9-0.2c0.2-0.1,0.5-0.2,0.8-0.3c0.3-0.1,0.6-0.3,0.8-0.4c0.2-0.1,0.4-0.3,0.6-0.5c0.3-0.2,0.5-0.4,0.6-0.6
		c0.1-0.2,0.3-0.5,0.4-0.7c0.1-0.3,0.2-0.6,0.3-0.9c0.1-0.3,0.1-0.7,0.1-1.1c0-1.7-0.6-3.1-1.9-4.1c-1.3-1-3-1.5-5.1-1.5
		C201.7-8.9,200.5-8.7,199.4-8.2"/>
	<polygon class="st0" points="130.6,4.5 138,-8.5 143.3,-8.5 130.6,13.6 117.9,-8.5 123.1,-8.5 	"/>
	<polygon class="st1" points="130.6,-5.3 125.2,-14.7 136,-14.7 	"/>
</symbol>
<g id="Calque_1">
</g>
<g id="Mode_Isolation">
</g>
<g id="svg2">
	<g>
		<path class="st4" d="M140.8,23.1c-2.4,0-4,1.8-4,4.4c0,2.6,1.6,4.4,4,4.4c2.4,0,4-1.8,4-4.4C144.8,24.9,143.2,23.1,140.8,23.1z"/>
		<path class="st4" d="M171.5,56.2c-1.9,0-3.2,1.2-3.5,3.1h6.8C174.7,57.4,173.5,56.2,171.5,56.2z"/>
		<path class="st4" d="M198.9,23.4c-2.5,0-4.2,1.9-4.2,4.7c0,2.8,1.7,4.7,4.2,4.7c2.5,0,4.2-1.9,4.2-4.7
			C203.2,25.3,201.4,23.4,198.9,23.4z"/>
		<path class="st4" d="M96.8,32.4c3.7,0,6.7-3,6.7-6.9c0-3.9-3-6.9-6.7-6.9c-3.7,0-6.8,3-6.8,6.9C90,29.3,93.1,32.4,96.8,32.4z"/>
		<path class="st4" d="M286.2,56.2c-1.9,0-3.2,1.2-3.5,3.1h6.8C289.4,57.4,288.1,56.2,286.2,56.2z"/>
		<path class="st4" d="M274.4,22.9c-2.2,0-3.6,1.5-4,3.7h7.8C278.1,24.4,276.7,22.9,274.4,22.9z"/>
		<path class="st4" d="M232.1,56.2c-1.9,0-3.2,1.2-3.5,3.1h6.8C235.3,57.4,234,56.2,232.1,56.2z"/>
		<path class="st3" d="M96.8,36.8c6.8,0,11.9-4.9,11.9-11.3c0-6.4-5.1-11.2-11.9-11.2c-6.8,0-11.9,4.8-11.9,11.2
			C84.9,31.9,90,36.8,96.8,36.8z M96.8,18.6c3.7,0,6.7,3,6.7,6.9c0,3.9-3,6.9-6.7,6.9c-3.7,0-6.8-3-6.8-6.9
			C90,21.6,93.1,18.6,96.8,18.6z"/>
		<path class="st3" d="M116.4,28.3c0-2.9,2.2-4.8,5.6-4.4v-4.6c-2.5,0-4.5,1.2-5.6,3.3v-3.1h-4.9v17h4.9V28.3z"/>
		<path class="st3" d="M126.9,17.4c1.6,0,2.6-1.1,2.6-2.7c0-1.6-1.1-2.7-2.6-2.7c-1.6,0-2.6,1.1-2.6,2.7
			C124.2,16.2,125.3,17.4,126.9,17.4z"/>
		<rect x="124.4" y="19.5" class="st3" width="4.9" height="17"/>
		<path class="st3" d="M149.6,35V19.5h-4.8v2.3c-1.2-1.6-2.9-2.5-5.3-2.5c-4.3,0-7.3,3.3-7.3,8.1c0,4.9,3,8.2,7.4,8.2
			c2.2,0,4-0.9,5.1-2.5v1.9c0,2.3-1.8,3.8-4.6,3.8c-1.9,0-3.7-0.6-5.3-1.7l-1.8,3.4c2,1.3,4.5,2.2,7.4,2.2
			C146,42.9,149.6,39.8,149.6,35z M140.8,31.9c-2.4,0-4-1.8-4-4.4c0-2.6,1.6-4.4,4-4.4c2.4,0,4,1.8,4,4.4
			C144.8,30.1,143.2,31.9,140.8,31.9z"/>
		<rect x="153.8" y="19.5" class="st3" width="4.9" height="17"/>
		<path class="st3" d="M156.2,17.4c1.6,0,2.6-1.1,2.6-2.7c0-1.6-1.1-2.7-2.6-2.7c-1.6,0-2.6,1.1-2.6,2.7
			C153.6,16.2,154.7,17.4,156.2,17.4z"/>
		<path class="st3" d="M167.9,28.1c0-2.5,1.5-4.3,3.9-4.4c2.1,0,3.4,1.3,3.4,3.5v9.3h4.9V25.8c0-4-2.4-6.5-6.2-6.5
			c-2.7,0-4.7,1-5.9,3.2v-3H163v17h4.9V28.1z"/>
		<path class="st3" d="M198.9,19.3c-5.5,0-9.2,3.5-9.2,8.7c0,5.2,3.7,8.7,9.2,8.7c5.4,0,9.1-3.5,9.1-8.7
			C208.1,22.8,204.4,19.3,198.9,19.3z M198.9,32.8c-2.5,0-4.2-1.9-4.2-4.7c0-2.8,1.7-4.7,4.2-4.7c2.5,0,4.2,1.9,4.2,4.7
			C203.2,30.9,201.4,32.8,198.9,32.8z"/>
		<path class="st3" d="M218.5,16.8c0.7,0,1.5,0.3,2.1,0.7l1.7-3.5c-1.2-0.8-2.9-1.2-4.5-1.2c-3.4,0-6.3,2-6.3,5.8v1.6h-2.3v3.4h2.3
			v12.9h4.8V23.6h4v-3.4h-4v-1.4C216.5,17.5,217.4,16.8,218.5,16.8z"/>
		<polygon class="st3" points="244.1,32.2 234.6,32.2 234.6,14.4 229.6,14.4 229.6,36.5 244.1,36.5 		"/>
		<rect x="246.7" y="19.5" class="st3" width="4.9" height="17"/>
		<path class="st3" d="M249.1,17.4c1.6,0,2.6-1.1,2.6-2.7c0-1.6-1.1-2.7-2.6-2.7c-1.6,0-2.6,1.1-2.6,2.7
			C246.5,16.2,247.6,17.4,249.1,17.4z"/>
		<path class="st3" d="M256.9,36.5h4.8V23.6h4v-3.4h-4v-1.4c0-1.4,0.9-2,2-2c0.7,0,1.5,0.3,2.1,0.7l1.7-3.5
			c-1.2-0.8-2.9-1.2-4.5-1.2c-3.4,0-6.3,2-6.3,5.8v1.6h-2.3v3.4h2.3V36.5z"/>
		<path class="st3" d="M274.5,36.7c3.1,0,5.6-1.1,7.3-3l-2.6-2.6c-1.2,1.2-2.7,1.8-4.3,1.8c-2.2,0-3.8-1.3-4.4-3.4h12.2
			c0.4-6.2-2.4-10.2-8.4-10.2c-5.2,0-8.8,3.5-8.8,8.7C265.6,33.2,269.1,36.7,274.5,36.7z M274.4,22.9c2.2,0,3.7,1.5,3.8,3.7h-7.8
			C270.8,24.4,272.3,22.9,274.4,22.9z"/>
		<path class="st29" d="M46.3,26.7c-0.1,0.2-0.2,0.3-0.4,0.5c-0.4,0.5-0.7,1-1,1.5c-0.3,0.5-0.6,1.1-0.9,1.6c-0.3,0.5-0.6,1-0.8,1.5
			c-0.2,0.5-0.5,1-0.7,1.5c-0.4,1-0.8,2-1.1,2.9c-0.3,0.9-0.5,1.8-0.7,2.5c-0.2,0.7-0.3,1.4-0.4,2c-0.2,1.1-0.4,1.7-0.4,1.7l0,0h0
			l0,0l0,0l0,0c0,0,0-0.4,0-1.2c0-0.4,0-0.9,0-1.4c0-0.5,0.1-1.2,0-1.8c0-0.7,0-1.4,0-2.1c0-0.7-0.1-1.5-0.1-2.3
			c0-0.4,0-0.8-0.1-1.2c-0.1-0.4-0.1-0.8-0.2-1.2c-0.1-0.4-0.1-0.8-0.2-1.3c-0.1-0.4-0.2-0.8-0.3-1.2c-0.1-0.4-0.1-0.8-0.2-1.2l0,0
			c-3,1.7-6.9-1.6-8.2-3.4c-1.4-2-2.1-4.4-2.6-6.4C17.1,18.1,8.2,25,4.8,34.6c-0.2,0.6-0.4,1.2-0.6,1.9c-0.3,0.9-0.5,1.9-0.6,2.9h0
			h12c0.5,0,0.9,0.4,0.9,0.9s-0.4,0.9-0.9,0.9H3.4l0,0c0,0.6-0.1,1.3-0.1,1.9c0,0.5,0,0.9,0,1.4h6.8c0.3,0,0.5,0.2,0.5,0.5
			c0,0.3-0.2,0.5-0.5,0.5H3.5c0,0.4,0.1,0.8,0.1,1.2c0,0.3,0.1,0.6,0.1,0.9c0.8,4.4,2.7,8.5,5.4,11.8h25.6c0.3,0,0.5,0.2,0.5,0.5
			c0,0.3-0.2,0.5-0.5,0.5H10c4.7,5.1,11.4,8.3,18.8,8.3c5.7,0,11-1.9,15.3-5.1c0.4-0.3,0.8-0.6,1.2-0.9c0.8-0.7,1.6-1.5,2.4-2.3
			h-5.2c-0.3,0-0.5-0.2-0.5-0.5c0-0.3,0.2-0.5,0.5-0.5h6c1.7-2.1,3.1-4.4,4.1-6.9c0.1-0.3,0.2-0.6,0.3-0.9c0.9-2.6,1.4-5.4,1.4-8.4
			c0-5.9-2-11.4-5.5-15.7C48,27.3,47.1,27.1,46.3,26.7z M23.5,45.4h-4.7c-0.3,0-0.5-0.2-0.5-0.5c0-0.3,0.2-0.5,0.5-0.5h4.7
			c0.3,0,0.5,0.2,0.5,0.5C24,45.2,23.7,45.4,23.5,45.4z M34.2,52.4h-9.4c-0.3,0-0.5-0.2-0.5-0.5c0-0.3,0.2-0.5,0.5-0.5h9.4
			c0.3,0,0.5,0.2,0.5,0.5C34.7,52.2,34.5,52.4,34.2,52.4z"/>
		<path class="st29" d="M39.4,26.1l-0.2,0.3c0.1,0.2,0.2,0.5,0.2,0.7c0.1,0.4,0.2,0.9,0.3,1.3c0.1,0.4,0.2,0.9,0.3,1.3
			c0.1,0.4,0.1,0.9,0.2,1.3c0,0.4,0.1,0.9,0.1,1.3c0,0.4,0,0.8,0,1.3c0,0.8,0.1,1.6,0,2.4c0,0.5-0.1,0.9-0.1,1.3
			c0.1-0.4,0.2-0.8,0.3-1.3c0.3-0.9,0.6-1.9,1-3c0.2-0.5,0.5-1,0.7-1.6c0.2-0.5,0.5-1.1,0.8-1.6c0.3-0.5,0.6-1.1,1-1.6
			c0.4-0.5,0.7-1,1.1-1.5c0.1-0.2,0.3-0.4,0.4-0.6l-0.2-0.2c-0.3-0.4-1.4-1.7-1.9-3.6c-0.9-0.6-1.8-1.2-2.7-1.7
			C41.7,23.7,39.4,26.1,39.4,26.1z"/>
		<path class="st30" d="M27.7,17.7c0.5,2,1.2,4.4,2.6,6.4c1.3,1.8,5.3,5.1,8.2,3.4l0,0c0,0,0-0.1,0-0.1c-0.1-0.4-0.2-0.8-0.4-1.2
			c-0.2-0.8-0.6-1.5-0.9-2.3c-0.2-0.4-0.4-0.7-0.5-1c-0.2-0.3-0.3-0.7-0.5-1c-0.2-0.3-0.4-0.6-0.6-0.9c-0.2-0.3-0.4-0.5-0.6-0.8
			c-0.2-0.3-0.4-0.5-0.6-0.7c-0.2-0.2-0.4-0.4-0.6-0.6c-0.4-0.4-0.7-0.7-1-0.9c-0.3-0.2-0.5-0.4-0.7-0.5c-0.2-0.1-0.3-0.2-0.3-0.2
			l0-0.1c0,0,0.4,0.2,1.1,0.5c0.3,0.2,0.7,0.5,1.1,0.8c0.4,0.3,0.9,0.7,1.3,1.2c0.2,0.2,0.5,0.5,0.7,0.8c0.2,0.3,0.4,0.6,0.7,0.9
			c0.2,0.3,0.4,0.6,0.6,1c0.2,0.3,0.4,0.7,0.6,1.1c0.3,0.8,0.8,1.5,1,2.4c0.1,0.2,0.1,0.4,0.2,0.6l0.2-0.3c0,0,2.3-2.3,1.5-5.4
			c-0.3-1.2-1.1-2.5-2.8-3.9c-1.4-1.1-2.9-1.9-6.5-2.9c-3.8-1.1-4.3-3.3-4.3-3.3s0.1,5.4,0.5,6.9C27.7,17.5,27.7,17.6,27.7,17.7z"/>
		<path class="st12" d="M39.1,29.8c0.1,0.4,0.1,0.8,0.2,1.3c0.1,0.4,0.1,0.8,0.2,1.2c0,0.4,0,0.8,0.1,1.2c0,0.8,0.1,1.6,0.1,2.3
			c0,0.7,0,1.5,0,2.1c0,0.6,0,1.3,0,1.8c0,0.5,0,1,0,1.4c0,0.8,0,1.2,0,1.2l0,0l0,0l0,0h0l0,0c0,0,0.1-0.6,0.4-1.7
			c0.1-0.5,0.2-1.2,0.4-2c0.2-0.7,0.5-1.6,0.7-2.5c0.3-0.9,0.7-1.9,1.1-2.9c0.3-0.5,0.5-1,0.7-1.5c0.2-0.5,0.5-1,0.8-1.5
			c0.3-0.5,0.6-1,0.9-1.6c0.3-0.5,0.7-1,1-1.5c0.1-0.2,0.2-0.3,0.4-0.5c0.2-0.3,0.5-0.7,0.8-1c0.4-0.5,0.8-1,1.2-1.5
			c0.8-1,1.7-2,2.5-2.9c0.8-1,1.7-1.9,2.5-2.8c0.8-0.9,1.5-1.8,2.2-2.7c0.3-0.4,0.6-0.9,0.9-1.3c0.3-0.4,0.6-0.8,0.8-1.3
			c0.5-0.8,0.9-1.6,1.2-2.4c0.3-0.7,0.6-1.3,0.7-1.9c0.3-1.1,0.5-1.7,0.5-1.7l-0.1,0c0,0-0.2,0.6-0.6,1.7c-0.1,0.5-0.5,1.2-0.8,1.9
			c-0.3,0.7-0.8,1.5-1.3,2.3c-0.2,0.4-0.5,0.8-0.9,1.2c-0.3,0.4-0.6,0.9-1,1.3c-0.7,0.8-1.5,1.7-2.3,2.6c-0.8,0.9-1.7,1.8-2.5,2.7
			c-0.9,0.9-1.8,1.9-2.6,2.8c-0.4,0.5-0.8,1-1.3,1.5c-0.3,0.3-0.5,0.6-0.8,1c-0.1,0.2-0.3,0.4-0.4,0.6c-0.4,0.5-0.7,1-1.1,1.5
			c-0.3,0.5-0.7,1.1-1,1.6c-0.3,0.5-0.6,1.1-0.8,1.6c-0.3,0.5-0.5,1.1-0.7,1.6c-0.4,1.1-0.7,2.1-1,3c-0.1,0.4-0.2,0.9-0.3,1.3
			c0-0.4,0.1-0.9,0.1-1.3c0.1-0.8,0-1.6,0-2.4c0-0.4,0-0.8,0-1.3c0-0.4-0.1-0.9-0.1-1.3c-0.1-0.4-0.1-0.9-0.2-1.3
			c-0.1-0.4-0.2-0.9-0.3-1.3c-0.1-0.4-0.2-0.9-0.3-1.3c-0.1-0.2-0.2-0.5-0.2-0.7c-0.1-0.2-0.1-0.4-0.2-0.6c-0.2-0.8-0.7-1.6-1-2.4
			c-0.2-0.4-0.4-0.7-0.6-1.1c-0.2-0.4-0.4-0.7-0.6-1c-0.2-0.3-0.4-0.6-0.7-0.9c-0.2-0.3-0.5-0.5-0.7-0.8c-0.5-0.5-0.9-0.9-1.3-1.2
			c-0.4-0.3-0.8-0.6-1.1-0.8c-0.7-0.4-1.1-0.5-1.1-0.5l0,0.1c0,0,0.1,0,0.3,0.2c0.2,0.1,0.4,0.3,0.7,0.5c0.3,0.2,0.7,0.5,1,0.9
			c0.2,0.2,0.4,0.4,0.6,0.6c0.2,0.2,0.4,0.4,0.6,0.7c0.2,0.3,0.4,0.5,0.6,0.8c0.2,0.3,0.4,0.6,0.6,0.9c0.2,0.3,0.4,0.6,0.5,1
			c0.2,0.3,0.4,0.7,0.5,1c0.3,0.7,0.7,1.5,0.9,2.3c0.1,0.4,0.2,0.8,0.4,1.2c0,0,0,0.1,0,0.1c0.1,0.4,0.2,0.8,0.2,1.2
			C38.9,29,39,29.4,39.1,29.8z"/>
		<path class="st30" d="M45.4,25.9l0.2,0.2c0.3-0.3,0.5-0.6,0.8-1c0.4-0.5,0.8-1,1.3-1.5c0.9-1,1.7-1.9,2.6-2.8
			c0.9-0.9,1.7-1.8,2.5-2.7c0.8-0.9,1.6-1.8,2.3-2.6c0.4-0.4,0.7-0.9,1-1.3c0.3-0.4,0.6-0.8,0.9-1.2c0.5-0.8,1-1.6,1.3-2.3
			c0.3-0.7,0.7-1.3,0.8-1.9c0.4-1.1,0.6-1.7,0.6-1.7l0.1,0c0,0-0.2,0.6-0.5,1.7c-0.1,0.6-0.4,1.2-0.7,1.9c-0.3,0.7-0.7,1.5-1.2,2.4
			c-0.2,0.4-0.5,0.8-0.8,1.3c-0.3,0.4-0.6,0.9-0.9,1.3c-0.7,0.9-1.4,1.8-2.2,2.7c-0.8,0.9-1.6,1.8-2.5,2.8c-0.8,0.9-1.7,1.9-2.5,2.9
			c-0.4,0.5-0.8,1-1.2,1.5c-0.3,0.3-0.5,0.7-0.8,1c0.9,0.4,1.7,0.7,2.6,0.7c4,0.2,7.8-3.3,9.5-5.7c2.4-3.3,3.4-7.3,4.2-10.6
			C63.1,8.6,63.2,0,63.2,0s-0.5,1.9-5.7,5.4c-3.4,2.3-5.5,2.9-8.7,5.6c-5.5,4.5-6,8.6-5.3,11.3C44,24.2,45.1,25.5,45.4,25.9z"/>
		<polygon class="st3" points="59.5,60.3 57.6,63.8 54.1,65.7 57.6,67.6 59.5,71.1 61.4,67.6 64.9,65.7 61.4,63.8 		"/>
		<path class="st31" d="M4.7,12.2c0.9-0.2,1.8-0.4,2.8-0.7c0.9-0.3,1.8-0.6,2.7-1c0.8-0.4,1.6-0.8,2.3-1.3c-0.7-2.2-2.7-3.8-5.1-3.8
			c-3,0-5.4,2.4-5.4,5.4c0,0.5,0.1,1.1,0.2,1.5c0.4,0,0.8,0,1.2,0C3.8,12.4,4.3,12.3,4.7,12.2z"/>
		<path class="st31" d="M8,13.3c-1,0.3-2,0.5-3,0.6C4.3,14,3.6,14,2.9,13.9c1,1.4,2.6,2.3,4.4,2.3c3,0,5.4-2.4,5.4-5.3
			c-0.6,0.5-1.2,0.8-1.9,1.2C9.9,12.6,9,13,8,13.3z"/>
		<path class="st29" d="M0.5,11.1c-0.1,0.2-0.3,0.4-0.4,0.6C0,11.9,0,12,0,12.2c0,0,0,0.1,0,0.1l0,0l0,0c0,0,0,0,0,0l0,0.1
			c0,0,0,0,0,0l0,0l0,0l0,0.1c0.1,0.3,0.3,0.5,0.5,0.7c0.2,0.2,0.5,0.3,0.7,0.4c0.2,0.1,0.5,0.1,0.7,0.2c0.3,0,0.5,0.1,0.8,0.1
			C3.6,14,4.3,14,5,13.9c1-0.1,2-0.3,3-0.6c1-0.3,1.9-0.7,2.8-1.1c0.7-0.3,1.3-0.7,1.9-1.2c0.2-0.2,0.4-0.3,0.6-0.5
			c0.2-0.2,0.3-0.4,0.5-0.6c0.2-0.2,0.3-0.4,0.4-0.7c0.1-0.3,0.2-0.6,0.1-0.9c0-0.1-0.1-0.2-0.1-0.2c0-0.1-0.1-0.1-0.1-0.2
			c-0.1-0.1-0.2-0.2-0.3-0.3c-0.2-0.2-0.4-0.2-0.7-0.3c-0.2-0.1-0.4-0.1-0.6-0.1c-0.2,0-0.4,0-0.6,0c-0.2,0-0.4,0-0.5,0
			c0.1,0.1,0.2,0.2,0.3,0.3c0.3,0,0.4,0.1,0.7,0.1c0.2,0,0.4,0.1,0.5,0.2c0.2,0.1,0.3,0.2,0.4,0.3c0,0,0,0.1,0.1,0.1
			c0,0,0.1,0.1,0.1,0.1c0,0.1,0.1,0.1,0.1,0.2c0,0.1,0,0.3-0.1,0.4c-0.2,0.3-0.5,0.6-0.8,0.8c-0.7,0.5-1.5,0.9-2.4,1.3
			c-0.9,0.4-1.7,0.7-2.7,1c-0.9,0.3-1.8,0.5-2.8,0.7c-0.5,0.1-0.9,0.2-1.4,0.2c-0.4,0-0.9,0.1-1.3,0c-0.4,0-0.8-0.1-1.1-0.2
			c-0.1-0.1-0.3-0.2-0.3-0.3l0,0l0,0l0,0c0,0,0,0,0,0l0-0.1c0,0,0,0,0,0l0,0c0,0,0,0,0,0c0,0,0-0.1,0-0.1c0,0,0-0.1,0-0.1
			c0-0.2,0.1-0.3,0.2-0.5C1,11.3,1.1,11.1,1.2,11c0.2-0.2,0.4-0.4,0.6-0.5c0-0.1,0-0.3,0.1-0.4c-0.2,0.1-0.3,0.2-0.5,0.3
			c-0.1,0.1-0.3,0.2-0.4,0.3C0.8,10.8,0.6,11,0.5,11.1z"/>
		<path class="st12" d="M16.5,40.3c0-0.5-0.4-0.9-0.9-0.9h-12c-0.1,0.6-0.2,1.2-0.2,1.9h12.2C16.1,41.2,16.5,40.8,16.5,40.3z"/>
		<path class="st12" d="M35.2,59.8c0-0.3-0.2-0.5-0.5-0.5H9.2h0c0.3,0.3,0.5,0.6,0.8,0.9h0h24.8C35,60.3,35.2,60,35.2,59.8z"/>
		<path class="st12" d="M34.2,51.5h-9.4c-0.3,0-0.5,0.2-0.5,0.5c0,0.3,0.2,0.5,0.5,0.5h9.4c0.3,0,0.5-0.2,0.5-0.5
			C34.7,51.7,34.5,51.5,34.2,51.5z"/>
		<path class="st12" d="M42,59.8c0,0.3,0.2,0.5,0.5,0.5h5.2h0c0.3-0.3,0.5-0.6,0.8-0.9h0h-6C42.2,59.3,42,59.5,42,59.8z"/>
		<path class="st12" d="M10.7,45c0-0.3-0.2-0.5-0.5-0.5H3.4h0c0,0.3,0,0.6,0.1,0.9l0,0h6.8C10.5,45.4,10.7,45.2,10.7,45z"/>
		<path class="st12" d="M23.5,44.5h-4.7c-0.3,0-0.5,0.2-0.5,0.5c0,0.3,0.2,0.5,0.5,0.5h4.7c0.3,0,0.5-0.2,0.5-0.5
			C24,44.7,23.7,44.5,23.5,44.5z"/>
		
			<use xlink:href="#logo_uga_long"  width="420.1" height="29.4" x="-210" y="-14.7" transform="matrix(0.5098 0 0 -0.5098 192.9105 57.7333)" style="overflow:visible;"/>
	</g>
</g>
</svg>
